<svg viewBox="0 0 1000 660" xmlns="http://www.w3.org/2000/svg" font-family="Segoe UI, Helvetica, Arial, sans-serif">
<defs>
<marker id="arrow" markerWidth="10" markerHeight="10" refX="8" refY="3" orient="auto" markerUnits="strokeWidth">
  <path d="M0,0 L0,6 L9,3 z" fill="#64748B"/>
</marker>
</defs>
<rect x="0" y="0" width="1000" height="660" fill="#F8FAFC"/>
<text x="500.0" y="36" font-family="Segoe UI, Helvetica, Arial, sans-serif" font-size="20" font-weight="700" fill="#0F172A" text-anchor="middle">Efinance DevOps — Delivery Architecture</text>
<text x="500.0" y="58" font-family="Segoe UI, Helvetica, Arial, sans-serif" font-size="13" font-weight="400" fill="#475569" text-anchor="middle">Every push to main is tested, scanned, built, and deployed to Azure — automatically</text>
<rect x="20" y="100" width="140" height="60" rx="12" fill="#FFFFFF" stroke="#CBD5E1" stroke-width="1.5"/>

<g>
  <rect x="32" y="119.2" width="36" height="19.8" rx="2" fill="none" stroke="#0F172A" stroke-width="1.6"/>
  <line x1="26.599999999999998" y1="141.0" x2="73.4" y2="141.0" stroke="#0F172A" stroke-width="1.6"/>
</g>
<text x="105" y="135" font-family="Segoe UI, Helvetica, Arial, sans-serif" font-size="14" font-weight="600" fill="#0F172A" text-anchor="middle">Developer</text>
<line x1="160" y1="130" x2="230" y2="130" stroke="#64748B" stroke-width="2" marker-end="url(#arrow)"/>
<text x="195.0" y="118" font-family="Segoe UI, Helvetica, Arial, sans-serif" font-size="11" font-weight="400" fill="#64748B" text-anchor="middle">git push</text>
<rect x="230" y="100" width="140" height="60" rx="12" fill="#FFFFFF" stroke="#CBD5E1" stroke-width="1.5"/>

<g stroke="#0F172A" stroke-width="1.6" fill="none">
  <circle cx="248.8" cy="120.4" r="3.2" fill="#0F172A" stroke="none"/>
  <circle cx="248.8" cy="139.6" r="3.2" fill="#0F172A" stroke="none"/>
  <circle cx="271.2" cy="130" r="3.2" fill="#0F172A" stroke="none"/>
  <path d="M 248.8,123.4 L 248.8,136.6"/>
  <path d="M 248.8,125.2 Q 260,128.4 271.2,127"/>
</g>
<text x="315" y="135" font-family="Segoe UI, Helvetica, Arial, sans-serif" font-size="14" font-weight="600" fill="#0F172A" text-anchor="middle">GitHub</text>
<line x1="300" y1="160" x2="300" y2="210" stroke="#64748B" stroke-width="2" marker-end="url(#arrow)"/>
<rect x="150" y="210" width="340" height="190" rx="14" fill="#FFFFFF" stroke="#94A3B8" stroke-width="1.5" stroke-dasharray="6,4"/>
<text x="320.0" y="236" font-family="Segoe UI, Helvetica, Arial, sans-serif" font-size="14" font-weight="700" fill="#0F172A" text-anchor="middle">GitHub Actions — docker.yml</text>
<text x="320.0" y="254" font-family="Segoe UI, Helvetica, Arial, sans-serif" font-size="11" font-weight="400" fill="#64748B" text-anchor="middle">runs on every push to main</text>
<rect x="160.0" y="282" width="96" height="56" rx="10" fill="#F8FAFC" stroke="#CBD5E1" stroke-width="1.5"/>
<text x="208.0" y="326" font-family="Segoe UI, Helvetica, Arial, sans-serif" font-size="11" font-weight="600" fill="#0F172A" text-anchor="middle">Tests</text>
<rect x="272.0" y="282" width="96" height="56" rx="10" fill="#F8FAFC" stroke="#CBD5E1" stroke-width="1.5"/>
<text x="320.0" y="326" font-family="Segoe UI, Helvetica, Arial, sans-serif" font-size="11" font-weight="600" fill="#0F172A" text-anchor="middle">Trivy scan</text>
<rect x="384.0" y="282" width="96" height="56" rx="10" fill="#F8FAFC" stroke="#CBD5E1" stroke-width="1.5"/>
<text x="432.0" y="326" font-family="Segoe UI, Helvetica, Arial, sans-serif" font-size="11" font-weight="600" fill="#0F172A" text-anchor="middle">CodeQL</text>
<text x="320.0" y="354" font-family="Segoe UI, Helvetica, Arial, sans-serif" font-size="11" font-weight="400" fill="#64748B" text-anchor="middle">all pass →</text>
<line x1="320.0" y1="344" x2="320.0" y2="386" stroke="#64748B" stroke-width="2"/>
<line x1="320.0" y1="400" x2="320.0" y2="425" stroke="#64748B" stroke-width="2" marker-end="url(#arrow)"/>
<rect x="210.0" y="425" width="220" height="60" rx="12" fill="#FFFFFF" stroke="#CBD5E1" stroke-width="1.5"/>
<text x="268.0" y="449" font-family="Segoe UI, Helvetica, Arial, sans-serif" font-size="13" font-weight="600" fill="#0F172A" text-anchor="start">Docker Hub</text>
<text x="268.0" y="467" font-family="Segoe UI, Helvetica, Arial, sans-serif" font-size="10.5" font-weight="400" fill="#64748B" text-anchor="start">images tagged by short SHA</text>
<rect x="560" y="100" width="380" height="330" rx="16" fill="#FFFFFF" stroke="#94A3B8" stroke-width="1.5" stroke-dasharray="6,4"/>
<text x="616" y="136" font-family="Segoe UI, Helvetica, Arial, sans-serif" font-size="15" font-weight="700" fill="#0F172A" text-anchor="start">Azure</text>
<text x="924" y="136" font-family="Segoe UI, Helvetica, Arial, sans-serif" font-size="10.5" font-weight="400" fill="#64748B" text-anchor="end">provisioned once, updated every deploy</text>
<rect x="584" y="158" width="332" height="96" rx="12" fill="#F8FAFC" stroke="#CBD5E1" stroke-width="1.5"/>
<text x="750.0" y="180" font-family="Segoe UI, Helvetica, Arial, sans-serif" font-size="12.5" font-weight="700" fill="#0F172A" text-anchor="middle">GitHub Actions — infra.yaml</text>

<g>
  <path d="M 668.0,216.0 L 662.0,219.3 L 663.9,225.9 L 657.3,224.0 L 654.0,230.0 L 650.7,224.0 L 644.1,225.9 L 646.0,219.3 L 640.0,216.0 L 646.0,212.7 L 644.1,206.1 L 650.7,208.0 L 654.0,202.0 L 657.3,208.0 L 663.9,206.1 L 662.0,212.7 Z" fill="#7C3AED" opacity="0.15" stroke="#7C3AED" stroke-width="1.4"/>
  <circle cx="654" cy="216" r="4.48" fill="#7C3AED"/>
</g>
<text x="654" y="250" font-family="Segoe UI, Helvetica, Arial, sans-serif" font-size="11" font-weight="600" fill="#0F172A" text-anchor="middle">Terraform</text>
<text x="654" y="264" font-family="Segoe UI, Helvetica, Arial, sans-serif" font-size="9.5" font-weight="400" fill="#64748B" text-anchor="middle">provision</text>

<g fill="none" stroke="#059669" stroke-width="1.8" stroke-linecap="round">
  <path d="M 737.0,216 a 13,13 0 1 1 6.5,11.31"/>
  <path d="M 743.5,200.69 L 737.0,216 L 743.5,213.4"/>
</g>
<text x="750.0" y="250" font-family="Segoe UI, Helvetica, Arial, sans-serif" font-size="11" font-weight="600" fill="#0F172A" text-anchor="middle">Ansible</text>
<text x="750.0" y="264" font-family="Segoe UI, Helvetica, Arial, sans-serif" font-size="9.5" font-weight="400" fill="#64748B" text-anchor="middle">configure + deploy</text>

<path d="M 829.1,221.2
         a 7.8,7.8 0 0 1 0,-11.700000000000001
         a 10.4,10.4 0 0 1 1.5,-4.55
         a 9.75,9.75 0 0 1 1.4,4.55
         a 7.15,7.15 0 0 1 0.1,11.700000000000001 Z"
      fill="#059669" opacity="0.14" stroke="#059669" stroke-width="1.6"/>
<text x="846" y="250" font-family="Segoe UI, Helvetica, Arial, sans-serif" font-size="11" font-weight="600" fill="#0F172A" text-anchor="middle">Blob storage</text>
<text x="846" y="264" font-family="Segoe UI, Helvetica, Arial, sans-serif" font-size="9.5" font-weight="400" fill="#64748B" text-anchor="middle">remote tfstate</text>
<line x1="670" y1="216" x2="720.0" y2="216" stroke="#64748B" stroke-width="2"/>
<line x1="780.0" y1="216" x2="826" y2="216" stroke="#64748B" stroke-width="2"/>
<path d="M 430.0,455 L 520,455 L 520,206.0 L 584,206.0" fill="none" stroke="#64748B" stroke-width="2" marker-end="url(#arrow)"/>
<text x="495.0" y="447" font-family="Segoe UI, Helvetica, Arial, sans-serif" font-size="10.5" font-weight="400" fill="#64748B" text-anchor="middle">on success</text>
<rect x="584" y="276" width="332" height="130" rx="12" fill="#F8FAFC" stroke="#CBD5E1" stroke-width="1.5"/>
<text x="750.0" y="296" font-family="Segoe UI, Helvetica, Arial, sans-serif" font-size="12.5" font-weight="700" fill="#0F172A" text-anchor="middle">Azure Linux VM — Docker Compose</text>
<rect x="608" y="310" width="130.0" height="78" rx="10" fill="#FFFFFF" stroke="#CBD5E1" stroke-width="1.5"/>
<text x="673.0" y="336" font-family="Segoe UI, Helvetica, Arial, sans-serif" font-size="12" font-weight="600" fill="#0F172A" text-anchor="middle">Frontend</text>
<text x="673.0" y="354" font-family="Segoe UI, Helvetica, Arial, sans-serif" font-size="10.5" font-weight="400" fill="#64748B" text-anchor="middle">Next.js · :3000</text>
<rect x="762.0" y="310" width="130.0" height="78" rx="10" fill="#FFFFFF" stroke="#CBD5E1" stroke-width="1.5"/>
<text x="827.0" y="336" font-family="Segoe UI, Helvetica, Arial, sans-serif" font-size="12" font-weight="600" fill="#0F172A" text-anchor="middle">Backend</text>
<text x="827.0" y="354" font-family="Segoe UI, Helvetica, Arial, sans-serif" font-size="10.5" font-weight="400" fill="#64748B" text-anchor="middle">FastAPI · :8000</text>
<line x1="738.0" y1="349.0" x2="762.0" y2="349.0" stroke="#64748B" stroke-width="2" marker-end="url(#arrow)"/>
<text x="750.0" y="341.0" font-family="Segoe UI, Helvetica, Arial, sans-serif" font-size="10" font-weight="400" fill="#64748B" text-anchor="middle">/api/*</text>
<line x1="750.0" y1="254" x2="750.0" y2="276" stroke="#64748B" stroke-width="2"/>
<line x1="827.0" y1="388" x2="750.0" y2="472" stroke="#64748B" stroke-width="2" marker-end="url(#arrow)"/>
<rect x="620.0" y="472" width="260" height="60" rx="12" fill="#FFFFFF" stroke="#CBD5E1" stroke-width="1.5"/>
<text x="682.0" y="496" font-family="Segoe UI, Helvetica, Arial, sans-serif" font-size="13" font-weight="600" fill="#0F172A" text-anchor="start">OpenRouter</text>
<text x="682.0" y="514" font-family="Segoe UI, Helvetica, Arial, sans-serif" font-size="10" font-weight="400" fill="#64748B" text-anchor="start">automatic fallback across free LLMs</text>
</svg>